<?xml version="1.0" encoding="UTF-8" standalone="no"?>
<!-- Created with Inkscape (http://www.inkscape.org/) -->

<svg
   xmlns:dc="http://purl.org/dc/elements/1.1/"
   xmlns:cc="http://creativecommons.org/ns#"
   xmlns:rdf="http://www.w3.org/1999/02/22-rdf-syntax-ns#"
   xmlns:svg="http://www.w3.org/2000/svg"
   xmlns="http://www.w3.org/2000/svg"
   xmlns:sodipodi="http://sodipodi.sourceforge.net/DTD/sodipodi-0.dtd"
   xmlns:inkscape="http://www.inkscape.org/namespaces/inkscape"
   version="1.1"
   width="600"
   height="600"
   id="svg2"
   inkscape:version="0.48.5 r10040"
   sodipodi:docname="icon.svg">
  <sodipodi:namedview
     pagecolor="#ffffff"
     bordercolor="#666666"
     borderopacity="1"
     objecttolerance="10"
     gridtolerance="10"
     guidetolerance="10"
     inkscape:pageopacity="0"
     inkscape:pageshadow="2"
     inkscape:window-width="1885"
     inkscape:window-height="1025"
     id="namedview32"
     showgrid="false"
     inkscape:zoom="1.1125147"
     inkscape:cx="48.373989"
     inkscape:cy="376.86303"
     inkscape:window-x="12"
     inkscape:window-y="32"
     inkscape:window-maximized="0"
     inkscape:current-layer="svg2" />
  <metadata
     id="metadata27">
    <rdf:RDF>
      <cc:Work
         rdf:about="">
        <dc:format>image/svg+xml</dc:format>
        <dc:type
           rdf:resource="http://purl.org/dc/dcmitype/StillImage" />
        <dc:title />
      </cc:Work>
    </rdf:RDF>
  </metadata>
  <defs
     id="defs4">
    <symbol
       viewBox="0 0 600 600"
       id="appLogoUnderlay">
      <linearGradient
         x1="257"
         y1="586.84003"
         x2="514.65997"
         y2="105"
         id="diagonalAlpha"
         gradientUnits="userSpaceOnUse">
        <stop
           id="stop8"
           style="stop-color:#000000;stop-opacity:0.34099999"
           offset="0" />
        <stop
           id="stop10"
           style="stop-color:#000000;stop-opacity:0.078"
           offset="1" />
      </linearGradient>
      <linearGradient
         x1="50"
         y1="50"
         x2="550"
         y2="550"
         id="strokeGrad"
         gradientUnits="userSpaceOnUse">
        <stop
           id="stop13"
           style="stop-color:#00AACC;stop-opacity:1"
           offset="0" />
        <stop
           id="stop15"
           style="stop-color:#85C5D1;stop-opacity:1"
           offset="1" />
      </linearGradient>
      <filter
         x="0"
         y="0"
         color-interpolation-filters="sRGB"
         id="f1">
        <feGaussianBlur
           id="feGaussianBlur18"
           stdDeviation="1.5"
           in="SourceGraphic" />
      </filter>
      <circle
         cx="300"
         cy="300"
         r="290"
         id="circle20"
         style="fill:#00AACC;fill-opacity:1;stroke:url(#strokeGrad);stroke-width:9;filter:url(#f1)" />
      <path
         d="M 257,586.84 A 323,323 0 0 1 514.66,105 290,290 0 0 1 257,586.84 z"
         id="path3831"
         style="fill:url(#diagonalAlpha);fill-opacity:1;stroke:none" />
    </symbol>
  </defs>
  <path
     sodipodi:type="arc"
     style="fill:#00aacc;fill-opacity:1;fill-rule:nonzero;stroke:none;stroke-opacity:1"
     id="path3781"
     sodipodi:cx="227.86217"
     sodipodi:cy="204.05017"
     sodipodi:rx="116.40296"
     sodipodi:ry="116.40296"
     d="m 344.26513,204.05017 a 116.40296,116.40296 0 1 1 -232.80592,0 116.40296,116.40296 0 1 1 232.80592,0 z"
     transform="matrix(2.4660068,0,0,2.4660068,-261.90916,-203.18961)" />
  <g
     transform="matrix(7.964738,0,0,7.964738,-98.2369,-96.965713)"
     id="g3039"
     style="fill:#ffffff;fill-opacity:1">
    <g
       id="g3005"
       style="fill:#ffffff;fill-opacity:1">
      <path
         d="m 42,76.1 c -0.1,0 -0.3,0 -0.4,-0.1 -0.5,-0.2 -0.8,-0.8 -0.6,-1.4 l 1.5,-3.7 c 0.2,-0.5 0.8,-0.8 1.4,-0.6 0.5,0.2 0.8,0.8 0.6,1.4 L 43,75.4 c -0.2,0.4 -0.6,0.7 -1,0.7 z"
         id="path3007"
         style="fill:#ffffff;fill-opacity:1" />
    </g>
    <g
       id="g3009"
       style="fill:#ffffff;fill-opacity:1">
      <path
         d="m 45.3,68.1 c -0.1,0 -0.3,0 -0.4,-0.1 -0.5,-0.2 -0.8,-0.8 -0.6,-1.4 l 4,-9.7 c 0.2,-0.5 0.8,-0.8 1.4,-0.6 0.5,0.2 0.8,0.8 0.6,1.4 l -4,9.7 c -0.2,0.4 -0.6,0.7 -1,0.7 z"
         id="path3011"
         style="fill:#ffffff;fill-opacity:1" />
    </g>
    <g
       id="g3013"
       style="fill:#ffffff;fill-opacity:1">
      <path
         d="m 56.2,74.1 c -0.1,0 -0.3,0 -0.4,-0.1 -0.5,-0.2 -0.8,-0.8 -0.6,-1.4 l 2.3,-5.5 c 0.2,-0.5 0.8,-0.8 1.4,-0.6 0.5,0.2 0.8,0.8 0.6,1.4 l -2.3,5.5 c -0.2,0.5 -0.6,0.7 -1,0.7 z"
         id="path3015"
         style="fill:#ffffff;fill-opacity:1" />
    </g>
    <g
       id="g3017"
       style="fill:#ffffff;fill-opacity:1">
      <path
         d="m 60.2,64.6 c -0.1,0 -0.3,0 -0.4,-0.1 -0.5,-0.2 -0.8,-0.8 -0.6,-1.4 l 2.6,-6.2 c 0.2,-0.5 0.8,-0.8 1.4,-0.6 0.5,0.2 0.8,0.8 0.6,1.4 l -2.6,6.2 c -0.2,0.4 -0.6,0.7 -1,0.7 z"
         id="path3019"
         style="fill:#ffffff;fill-opacity:1" />
    </g>
    <g
       id="g3021"
       style="fill:#ffffff;fill-opacity:1">
      <path
         d="m 30.9,70.5 c -0.1,0 -0.3,0 -0.4,-0.1 C 30,70.2 29.7,69.6 29.9,69 l 2.4,-5.8 c 0.2,-0.5 0.8,-0.8 1.4,-0.6 0.5,0.2 0.8,0.8 0.6,1.4 l -2.4,5.8 c -0.2,0.5 -0.6,0.7 -1,0.7 z"
         id="path3023"
         style="fill:#ffffff;fill-opacity:1" />
    </g>
    <g
       id="g3025"
       style="fill:#ffffff;fill-opacity:1">
      <path
         d="m 35.1,60.3 c -0.1,0 -0.3,0 -0.4,-0.1 -0.5,-0.2 -0.8,-0.8 -0.6,-1.4 l 0.8,-1.9 c 0.2,-0.5 0.8,-0.8 1.4,-0.6 0.5,0.2 0.8,0.8 0.6,1.4 l -0.8,1.9 c -0.2,0.4 -0.6,0.7 -1,0.7 z"
         id="path3027"
         style="fill:#ffffff;fill-opacity:1" />
    </g>
    <g
       id="g3029"
       style="fill:#ffffff;fill-opacity:1">
      <path
         d="M 65,53.6 H 35 c -5,0 -9,-4 -9,-9 0,-5 4,-9 9,-9 0.2,0 0.3,0 0.5,0 C 37,28.9 43,23.9 50,23.9 c 7,0 13,4.9 14.5,11.7 0.2,0 0.4,0 0.5,0 5,0 9,4 9,9 0,5 -4,9 -9,9 z M 35,37.7 c -3.8,0 -6.9,3.1 -6.9,6.9 0,3.8 3.1,6.9 6.9,6.9 h 30 c 3.8,0 6.9,-3.1 6.9,-6.9 0,-3.8 -3.1,-6.9 -6.9,-6.9 -0.4,0 -0.8,0 -1.2,0.1 -0.3,0 -0.6,0 -0.8,-0.2 C 62.8,37.4 62.6,37.2 62.6,36.9 61.7,30.7 56.3,26 50,26 c -6.3,0 -11.7,4.7 -12.6,10.9 0,0.3 -0.2,0.5 -0.4,0.7 -0.2,0.2 -0.5,0.2 -0.8,0.2 -0.5,-0.1 -0.8,-0.1 -1.2,-0.1 z"
         id="path3031"
         style="fill:#ffffff;fill-opacity:1" />
    </g>
  </g>
</svg>
